<svg width="1040" height="240" viewBox="0 0 1040 240" fill="none" xmlns="http://www.w3.org/2000/svg">
  <rect width="1040" height="240" rx="28" fill="#F5FBFA"/>
  <rect x="36" y="36" width="168" height="168" rx="36" fill="#0F4C5C"/>
  <path d="M84 120C84 93.49 105.49 72 132 72H164V96H132C118.745 96 108 106.745 108 120C108 133.255 118.745 144 132 144H156V120H180V168H132C105.49 168 84 146.51 84 120Z" fill="#E0FBFC"/>
  <circle cx="168" cy="120" r="18" fill="#E9C46A"/>
  <path d="M252 87.5H290.504C320.18 87.5 338.5 105.58 338.5 132C338.5 158.42 320.18 176.5 290.504 176.5H252V87.5ZM289.125 154.875C303.72 154.875 312.738 146.115 312.738 132C312.738 117.885 303.72 109.125 289.125 109.125H277.504V154.875H289.125Z" fill="#0F4C5C"/>
  <path d="M352.116 132C352.116 105.324 372.778 85.72 400.858 85.72C418.63 85.72 433.098 92.09 442.37 103.619L425.996 118.468C420.134 111.59 412.747 107.783 402.129 107.783C385.755 107.783 374.176 119.185 374.176 132C374.176 144.815 385.755 156.217 402.129 156.217C412.747 156.217 420.134 152.41 425.996 145.532L442.37 160.381C433.098 171.91 418.63 178.28 400.731 178.28C372.778 178.28 352.116 158.676 352.116 132Z" fill="#0F4C5C"/>
  <path d="M459.566 87.5H485.07V155.893H527.156V176.5H459.566V87.5Z" fill="#0F4C5C"/>
  <path d="M555.281 87.5H580.785V176.5H555.281V87.5Z" fill="#0F4C5C"/>
  <path d="M600.935 132C600.935 105.324 621.597 85.72 649.677 85.72C667.449 85.72 681.917 92.09 691.189 103.619L674.815 118.468C668.953 111.59 661.566 107.783 650.948 107.783C634.574 107.783 622.995 119.185 622.995 132C622.995 144.815 634.574 156.217 650.948 156.217C661.566 156.217 668.953 152.41 674.815 145.532L691.189 160.381C681.917 171.91 667.449 178.28 649.55 178.28C621.597 178.28 600.935 158.676 600.935 132Z" fill="#0F4C5C"/>
  <path d="M707.531 87.5H733.035V123.35H768.887V87.5H794.391V176.5H768.887V144.72H733.035V176.5H707.531V87.5Z" fill="#0F4C5C"/>
  <path d="M814.531 87.5H885.887V107.726H839.781V121.954H880.355V141.545H839.781V156.274H887.54V176.5H814.531V87.5Z" fill="#0F4C5C"/>
  <path d="M899.516 167.99L907.792 149.517C916.683 155.379 929.979 159.441 942.159 159.441C956.118 159.441 961.751 155.761 961.751 149.785C961.751 131.758 901.551 144.79 901.551 111.845C901.551 96.804 913.716 85.72 938.926 85.72C950.017 85.72 961.369 88.258 970.006 93.234L962.238 111.845C953.602 106.996 944.72 104.711 938.799 104.711C924.84 104.711 919.46 109.941 919.46 116.336C919.46 134.109 979.66 121.331 979.66 153.641C979.66 168.428 967.368 178.28 942.032 178.28C928.073 178.28 914.079 174.092 905.951 167.609L899.516 167.99Z" fill="#0F4C5C"/>
</svg>
